<svg id="visual" viewBox="0 0 900 600" width="900" height="600" xmlns="http://www.w3.org/2000/svg" xmlns:xlink="http://www.w3.org/1999/xlink" version="1.1"><rect x="0" y="0" width="900" height="600" fill="#DBDBCA"></rect><defs><linearGradient id="grad1_0" x1="33.3%" y1="0%" x2="100%" y2="100%"><stop offset="20%" stop-color="#005a86" stop-opacity="1"></stop><stop offset="80%" stop-color="#005a86" stop-opacity="1"></stop></linearGradient></defs><defs><linearGradient id="grad1_1" x1="33.3%" y1="0%" x2="100%" y2="100%"><stop offset="20%" stop-color="#005a86" stop-opacity="1"></stop><stop offset="80%" stop-color="#679f97" stop-opacity="1"></stop></linearGradient></defs><defs><linearGradient id="grad1_2" x1="33.3%" y1="0%" x2="100%" y2="100%"><stop offset="20%" stop-color="#dbdbca" stop-opacity="1"></stop><stop offset="80%" stop-color="#679f97" stop-opacity="1"></stop></linearGradient></defs><defs><linearGradient id="grad2_0" x1="0%" y1="0%" x2="66.7%" y2="100%"><stop offset="20%" stop-color="#005a86" stop-opacity="1"></stop><stop offset="80%" stop-color="#005a86" stop-opacity="1"></stop></linearGradient></defs><defs><linearGradient id="grad2_1" x1="0%" y1="0%" x2="66.7%" y2="100%"><stop offset="20%" stop-color="#679f97" stop-opacity="1"></stop><stop offset="80%" stop-color="#005a86" stop-opacity="1"></stop></linearGradient></defs><defs><linearGradient id="grad2_2" x1="0%" y1="0%" x2="66.7%" y2="100%"><stop offset="20%" stop-color="#679f97" stop-opacity="1"></stop><stop offset="80%" stop-color="#dbdbca" stop-opacity="1"></stop></linearGradient></defs><g transform="translate(900, 0)"><path d="M0 432.7C-43.8 428.6 -87.5 424.6 -133.7 411.5C-179.9 398.4 -228.4 376.3 -238.6 328.5C-248.9 280.6 -220.8 207.1 -234.6 170.5C-248.5 133.8 -304.3 134.1 -344.3 111.9C-384.3 89.6 -408.5 44.8 -432.7 0L0 0Z" fill="#a5bda8"></path><path d="M0 288.4C-29.2 285.7 -58.4 283 -89.1 274.3C-119.9 265.6 -152.3 250.9 -159.1 219C-165.9 187.1 -147.2 138.1 -156.4 113.6C-165.6 89.2 -202.9 89.4 -229.5 74.6C-256.2 59.7 -272.3 29.9 -288.4 0L0 0Z" fill="#277e90"></path><path d="M0 144.2C-14.6 142.9 -29.2 141.5 -44.6 137.2C-60 132.8 -76.1 125.4 -79.5 109.5C-83 93.5 -73.6 69 -78.2 56.8C-82.8 44.6 -101.4 44.7 -114.8 37.3C-128.1 29.9 -136.2 14.9 -144.2 0L0 0Z" fill="#005a86"></path></g><g transform="translate(0, 600)"><path d="M0 -432.7C47.9 -433.4 95.8 -434.2 133.7 -411.5C171.6 -388.8 199.3 -342.7 218.7 -301C238 -259.2 248.8 -221.9 262.9 -191C277.1 -160.2 294.5 -135.8 323.4 -105.1C352.2 -74.3 392.4 -37.2 432.7 0L0 0Z" fill="#a5bda8"></path><path d="M0 -288.4C31.9 -288.9 63.9 -289.4 89.1 -274.3C114.4 -259.2 132.9 -228.5 145.8 -200.6C158.6 -172.8 165.9 -147.9 175.3 -127.4C184.7 -106.8 196.3 -90.5 215.6 -70C234.8 -49.5 261.6 -24.8 288.4 0L0 0Z" fill="#277e90"></path><path d="M0 -144.2C16 -144.5 31.9 -144.7 44.6 -137.2C57.2 -129.6 66.4 -114.2 72.9 -100.3C79.3 -86.4 82.9 -74 87.6 -63.7C92.4 -53.4 98.2 -45.3 107.8 -35C117.4 -24.8 130.8 -12.4 144.2 0L0 0Z" fill="#005a86"></path></g></svg>