<svg id="visual" viewBox="0 0 900 600" width="900" height="600" xmlns="http://www.w3.org/2000/svg" xmlns:xlink="http://www.w3.org/1999/xlink" version="1.1"><rect x="0" y="0" width="900" height="600" fill="#eff5ef"></rect><path d="M375 0L383.8 16.7C392.7 33.3 410.3 66.7 404.7 100C399 133.3 370 166.7 366.7 200C363.3 233.3 385.7 266.7 401.8 300C418 333.3 428 366.7 433.2 400C438.3 433.3 438.7 466.7 437.2 500C435.7 533.3 432.3 566.7 430.7 583.3L429 600L0 600L0 583.3C0 566.7 0 533.3 0 500C0 466.7 0 433.3 0 400C0 366.7 0 333.3 0 300C0 266.7 0 233.3 0 200C0 166.7 0 133.3 0 100C0 66.7 0 33.3 0 16.7L0 0Z" fill="#005A86" stroke-linecap="round" stroke-linejoin="miter"></path></svg>